<svg width="30" height="30" viewBox="0 0 30 30" fill="none" xmlns="http://www.w3.org/2000/svg">
<rect x="7.5" y="5" width="16.6667" height="18.3333" fill="white"/>
<path d="M15 0.833336C7.1899 0.833336 0.833374 7.18986 0.833374 15C0.833374 22.8101 7.1899 29.1667 15 29.1667C22.8102 29.1667 29.1667 22.8101 29.1667 15C29.1667 7.18986 22.8102 0.833336 15 0.833336ZM20.5435 21.7754H16.8479V15H14.3841V21.7754H10.6884V15H8.22468V11.3044H10.7131C10.941 8.24928 12.8935 6.37681 15.924 6.37681H17.4823V10.0725H15.924C15.3573 10.0725 14.6058 10.0725 14.4272 11.3044H20.5435V21.7754Z" fill="#1DBF73"/>
</svg>
