<svg width="28" height="22" viewBox="0 0 28 22" fill="none" xmlns="http://www.w3.org/2000/svg">
<path d="M27.3333 6.00793L24.1587 7.75397L20.9841 10.7698V21.119H25.4286C26.4806 21.119 27.3333 20.2663 27.3333 19.2143V6.00793Z" fill="#4CAF50"/>
<path d="M0.666626 6.00793L2.96123 7.09365L7.01583 10.7698V21.119H2.57139C1.51932 21.119 0.666626 20.2663 0.666626 19.2143V6.00793Z" fill="#1E88E5"/>
<path d="M20.984 2.83333L13.9999 8.07142L7.01578 2.83333L6.38086 6.51587L7.01578 10.7698L13.9999 16.0079L20.984 10.7698L21.619 6.51587L20.984 2.83333Z" fill="#E53935"/>
<path d="M0.666626 3.53047V6.00793L7.01583 10.7698V2.83333L5.03234 1.34698C4.55996 0.992694 3.98599 0.801582 3.39551 0.801582C1.88821 0.801582 0.666626 2.02317 0.666626 3.53047Z" fill="#C62828"/>
<path d="M27.3333 3.53047V6.00793L20.9841 10.7698V2.83333L22.9676 1.34698C23.44 0.992694 24.014 0.801582 24.6044 0.801582C26.1117 0.801582 27.3333 2.02317 27.3333 3.53047Z" fill="#FBC02D"/>
</svg>
