<svg width="30" height="30" viewBox="0 0 30 30" fill="none" xmlns="http://www.w3.org/2000/svg">
<path d="M29.1667 25.2315C29.1667 27.4053 27.4053 29.1667 25.2315 29.1667H4.76856C2.59555 29.1667 0.833374 27.4053 0.833374 25.2315V4.76852C0.833374 2.59472 2.59555 0.833336 4.76856 0.833336H25.2315C27.4053 0.833336 29.1667 2.59472 29.1667 4.76852V25.2315Z" fill="#0288D1"/>
<path d="M5.55554 11.0648H9.49073V24.4444H5.55554V11.0648ZM7.51133 9.49074H7.48929C6.31503 9.49074 5.55554 8.61555 5.55554 7.52235C5.55554 6.40555 6.33864 5.55555 7.53415 5.55555C8.73124 5.55555 9.46869 6.40555 9.49073 7.52235C9.49073 8.61476 8.73124 9.49074 7.51133 9.49074ZM24.4444 24.4444H20.5092V17.2832C20.5092 15.5533 19.5451 14.3727 17.997 14.3727C16.8157 14.3727 16.1766 15.1692 15.8665 15.9389C15.7532 16.2144 15.787 16.9762 15.787 17.3611V24.4444H11.8518V11.0648H15.787V13.1237C16.3545 12.2454 17.243 11.0648 19.516 11.0648C22.332 11.0648 24.4436 12.8356 24.4436 16.7897L24.4444 24.4444Z" fill="white"/>
</svg>
