<svg width="30" height="30" viewBox="0 0 30 30" fill="none" xmlns="http://www.w3.org/2000/svg">
<path fill-rule="evenodd" clip-rule="evenodd" d="M27.5958 29.1423L2.43185 29.1667C1.56689 29.1675 0.85856 28.4607 0.857773 27.5957L0.833375 2.43181C0.832588 1.56686 1.53935 0.858522 2.4043 0.857735L27.5682 0.833337C28.4332 0.832549 29.1415 1.53931 29.1423 2.40426L29.1667 27.5682C29.1675 28.4332 28.4607 29.1415 27.5958 29.1423Z" fill="url(#paint0_linear_142_33)"/>
<path fill-rule="evenodd" clip-rule="evenodd" d="M19.099 12.3296C20.3394 13.2158 21.8591 13.7368 23.5001 13.7368V10.58C23.1892 10.58 22.8799 10.5477 22.5761 10.4832V12.9679C20.9352 12.9679 19.4162 12.4461 18.175 11.5607V18.0018C18.175 21.2239 15.5613 23.8361 12.3376 23.8361C11.135 23.8361 10.0166 23.4725 9.08789 22.8491C10.148 23.9321 11.6261 24.6042 13.2615 24.6042C16.4853 24.6042 19.099 21.992 19.099 18.7699V12.3296ZM20.2394 9.14524C19.6059 8.45343 19.1895 7.55857 19.099 6.56927V6.16315H18.223C18.4434 7.42005 19.1958 8.49436 20.2394 9.14524ZM11.1271 20.377C10.7729 19.9127 10.5817 19.3452 10.5825 18.7613C10.5825 17.2871 11.778 16.0924 13.2529 16.0924C13.5276 16.0924 13.8007 16.1341 14.0628 16.2176V12.9907C13.7566 12.949 13.4481 12.9309 13.1388 12.9372V15.4486C12.8767 15.3652 12.6036 15.3235 12.3281 15.3235C10.8532 15.3235 9.6577 16.5182 9.6577 17.9923C9.65849 19.0351 10.2559 19.9379 11.1271 20.377Z" fill="#EC407A"/>
<path fill-rule="evenodd" clip-rule="evenodd" d="M18.1749 11.5607C19.4153 12.4469 20.935 12.9679 22.576 12.9679V10.4832C21.6599 10.288 20.8492 9.8095 20.2393 9.14445C19.1957 8.49357 18.4441 7.42005 18.2237 6.16315H15.9232V18.7699C15.9177 20.2393 14.7245 21.4293 13.2528 21.4293C12.3854 21.4293 11.6149 21.0161 11.127 20.3763C10.2557 19.9371 9.65836 19.0344 9.65836 17.9923C9.65836 16.5182 10.8539 15.3235 12.3288 15.3235C12.6113 15.3235 12.8836 15.3676 13.1394 15.4486V12.938C9.97239 13.0033 7.42554 15.5895 7.42554 18.7707C7.42554 20.3589 8.05989 21.7984 9.08933 22.8499C10.018 23.4732 11.1364 23.8369 12.339 23.8369C15.5627 23.8369 18.1765 21.2247 18.1765 18.0026L18.1749 11.5607Z" fill="white"/>
<path fill-rule="evenodd" clip-rule="evenodd" d="M22.576 10.484V9.81187C21.7496 9.81344 20.9406 9.58205 20.2393 9.14446C20.8595 9.82367 21.6764 10.292 22.576 10.484ZM18.2229 6.16316C18.2017 6.04274 18.1859 5.92233 18.1749 5.80034V5.39423H14.9984V18.0018C14.9937 19.4712 13.7998 20.6612 12.328 20.6612C11.8959 20.6612 11.4882 20.5589 11.127 20.3763C11.615 21.0161 12.3855 21.4293 13.2528 21.4293C14.7245 21.4293 15.9177 20.2393 15.9232 18.7699V6.16316H18.2229ZM13.1387 12.938V12.2226C12.8734 12.1864 12.6058 12.1683 12.3375 12.1683C9.11296 12.1683 6.5 14.7804 6.5 18.0026C6.5 20.0229 7.52708 21.8032 9.08778 22.8499C8.05833 21.7984 7.42398 20.3589 7.42398 18.7707C7.42398 15.5895 9.97162 13.0033 13.1387 12.938Z" fill="#81D4FA"/>
<defs>
<linearGradient id="paint0_linear_142_33" x1="14.9819" y1="0.958475" x2="14.9819" y2="29.2029" gradientUnits="userSpaceOnUse">
<stop stop-color="#4C4C4C"/>
<stop offset="1" stop-color="#343434"/>
</linearGradient>
</defs>
</svg>
